<?xml version="1.0" encoding="UTF-8"?>
<svg xmlns="http://www.w3.org/2000/svg" xmlns:xlink="http://www.w3.org/1999/xlink" width="0" height="0">
<symbol id="angle-left-solid" viewBox="0 0 320 512"><path d="M41.4 233.4c-12.5 12.5-12.5 32.8 0 45.3l160 160c12.5 12.5 32.8 12.5 45.3 0s12.5-32.8 0-45.3L109.3 256 246.6 118.6c12.5-12.5 12.5-32.8 0-45.3s-32.8-12.5-45.3 0l-160 160z"/></symbol>
<symbol id="clip" width="30" height="30" viewBox="0 0 30 30" fill="none">
<path d="M24.7406 5.25967C22.0374 2.55645 17.626 2.54367 14.9227 5.24696L3.92429 16.2454C1.95038 18.2193 1.95674 21.4374 3.93064 23.4114C5.90455 25.3853 9.12272 25.3916 11.0966 23.4177L20.7035 13.8109C21.948 12.5664 21.948 10.5414 20.7035 9.29683C19.4589 8.05231 17.4339 8.05231 16.1894 9.29683L7.87253 17.6137C7.45704 18.0292 7.45704 18.7029 7.87253 19.1184C8.28802 19.5338 8.9617 19.5338 9.37719 19.1184L17.6941 10.8015C18.1089 10.3866 18.7839 10.3866 19.1987 10.8015C19.6136 11.2163 19.6136 11.8913 19.1987 12.3061L9.5919 21.913C8.44767 23.0572 6.5795 23.0508 5.43531 21.9066C4.29112 20.7624 4.28472 18.8943 5.42895 17.75L16.4274 6.75162C18.3009 4.87805 21.3623 4.89076 23.2359 6.76437C25.1095 8.63798 25.1223 11.6993 23.2487 13.5729L12.9546 23.867C12.5391 24.2825 12.5391 24.9562 12.9546 25.3717C13.3701 25.7872 14.0437 25.7872 14.4592 25.3717L24.7533 15.0776C27.4566 12.3743 27.4439 7.96293 24.7406 5.25967Z" fill="#A4A4AB"/>
</symbol>

<symbol id="left arrow icon" width="12" height="25" viewBox="0 0 12 25" fill="none">
<g clip-path="url(#clip0_7_118)">
<path d="M1.49995 12.5C1.49995 12.3082 1.57326 12.1162 1.7197 11.9698L9.2197 4.4698C9.51277 4.17673 9.98733 4.17673 10.2802 4.4698C10.5731 4.76286 10.5733 5.23742 10.2802 5.5303L3.31045 12.5L10.2802 19.4698C10.5733 19.7629 10.5733 20.2374 10.2802 20.5303C9.98714 20.8232 9.51258 20.8234 9.2197 20.5303L1.7197 13.0303C1.57326 12.8839 1.49995 12.6919 1.49995 12.5Z" fill="white"/>
</g>
<defs>
<clipPath>
<rect width="24" height="12" fill="white" transform="translate(12 0.5) rotate(90)"/>
</clipPath>
</defs>
</symbol>

<symbol id="microphone" width="30" height="30" viewBox="0 0 30 30" fill="none">
<path d="M15 20.625C11.8983 20.625 9.375 18.1017 9.375 15V7.5C9.375 4.39828 11.8983 1.875 15 1.875C18.1017 1.875 20.625 4.39828 20.625 7.5V15C20.625 18.1017 18.1017 20.625 15 20.625ZM15 3.75C12.9323 3.75 11.25 5.43234 11.25 7.5V15C11.25 17.0677 12.9323 18.75 15 18.75C17.0677 18.75 18.75 17.0677 18.75 15V7.5C18.75 5.43234 17.0677 3.75 15 3.75ZM23.4375 13.125C22.9198 13.125 22.5 13.5448 22.5 14.0625V15C22.5 19.1355 19.1355 22.5 15 22.5C10.8645 22.5 7.5 19.1355 7.5 15V14.0625C7.5 13.5448 7.08023 13.125 6.5625 13.125C6.04477 13.125 5.625 13.5448 5.625 14.0625V15C5.625 19.8532 9.33164 23.8556 14.0625 24.3274V26.25H12.1875C11.6698 26.25 11.25 26.6698 11.25 27.1875C11.25 27.7052 11.6698 28.125 12.1875 28.125H17.8125C18.3302 28.125 18.75 27.7052 18.75 27.1875C18.75 26.6698 18.3302 26.25 17.8125 26.25H15.9375V24.3274C20.6684 23.8554 24.375 19.853 24.375 15V14.0625C24.375 13.5448 23.9552 13.125 23.4375 13.125Z" fill="#A4A4AB"/>
</symbol>

<symbol id="microphone-solid" viewBox="0 0 384 512"><path d="M192 0C139 0 96 43 96 96l0 160c0 53 43 96 96 96s96-43 96-96l0-160c0-53-43-96-96-96zM64 216c0-13.3-10.7-24-24-24s-24 10.7-24 24l0 40c0 89.1 66.2 162.7 152 174.4l0 33.6-48 0c-13.3 0-24 10.7-24 24s10.7 24 24 24l72 0 72 0c13.3 0 24-10.7 24-24s-10.7-24-24-24l-48 0 0-33.6c85.8-11.7 152-85.3 152-174.4l0-40c0-13.3-10.7-24-24-24s-24 10.7-24 24l0 40c0 70.7-57.3 128-128 128s-128-57.3-128-128l0-40z"/></symbol>
<symbol id="sticker" width="20" height="20" viewBox="0 0 20 20" fill="none">
<g clip-path="url(#clip0_7_621)">
<path d="M10.3186 0H10C4.48602 0 0 4.48602 0 10C0 15.514 4.48602 20 10 20C15.514 20 20 15.514 20 10V9.68137L10.3186 0ZM17.4208 9.27785C15.2212 9.20902 13.559 8.62504 12.467 7.53305C11.375 6.44105 10.7911 4.77875 10.7222 2.57934L17.4208 9.27785ZM10 18.4615C5.3343 18.4615 1.53848 14.6657 1.53848 10C1.53848 5.60887 4.90094 1.98887 9.18613 1.57797C9.08742 4.69785 9.82312 7.06484 11.3791 8.6209C12.8432 10.085 15.0242 10.8234 17.8759 10.8233C18.055 10.8233 18.2376 10.8196 18.4221 10.8137C18.0112 15.099 14.3912 18.4615 10 18.4615Z" fill="#A4A4AB"/>
</g>
<defs>
<clipPath>
<rect width="20" height="20" fill="white"/>
</clipPath>
</defs>
</symbol>

<symbol id="t-space-logo" width="36" height="37" viewBox="0 0 36 37" fill="none">
<rect y="0.5" width="36" height="36" rx="18" fill="#0038FF"/>
<g clip-path="url(#clip0_7_200)">
<path fill-rule="evenodd" clip-rule="evenodd" d="M9.29916 9.83962H22.0269V12.6555H12.115V17.5551H9.29916V9.83962Z" fill="white"/>
<path fill-rule="evenodd" clip-rule="evenodd" d="M21.9143 27.1856H14.1425V14.7395H23.8854V9.83987H26.7013V17.5553H16.9584V24.3697H19.0985V19.4138H21.9143V27.1856Z" fill="white"/>
</g>
<defs>
<clipPath>
<rect width="21.7358" height="18" fill="white" transform="translate(7.13208 9.5)"/>
</clipPath>
</defs>
</symbol>

<symbol id="Vector" width="15" height="15" viewBox="0 0 15 15" fill="none">
<path d="M15 7.5C15 8.14 14.2137 8.6675 14.0562 9.2575C13.8937 9.8675 14.305 10.7175 13.9963 11.2513C13.6825 11.7938 12.7387 11.8588 12.2987 12.2987C11.8588 12.7387 11.7938 13.6825 11.2513 13.9963C10.7175 14.305 9.8675 13.8937 9.2575 14.0562C8.6675 14.2137 8.14 15 7.5 15C6.86 15 6.3325 14.2137 5.7425 14.0562C5.1325 13.8937 4.2825 14.305 3.74875 13.9963C3.20625 13.6825 3.14125 12.7387 2.70125 12.2987C2.26125 11.8588 1.3175 11.7938 1.00375 11.2513C0.695 10.7175 1.10625 9.8675 0.94375 9.2575C0.78625 8.6675 0 8.14 0 7.5C0 6.86 0.78625 6.3325 0.94375 5.7425C1.10625 5.1325 0.695 4.2825 1.00375 3.74875C1.3175 3.20625 2.26125 3.14125 2.70125 2.70125C3.14125 2.26125 3.20625 1.3175 3.74875 1.00375C4.2825 0.695 5.1325 1.10625 5.7425 0.94375C6.3325 0.78625 6.86 0 7.5 0C8.14 0 8.6675 0.78625 9.2575 0.94375C9.8675 1.10625 10.7175 0.695 11.2513 1.00375C11.7938 1.3175 11.8588 2.26125 12.2987 2.70125C12.7387 3.14125 13.6825 3.20625 13.9963 3.74875C14.305 4.2825 13.8937 5.1325 14.0562 5.7425C14.2137 6.3325 15 6.86 15 7.5Z" fill="#0038FF"/>
</symbol>

<symbol id="Vector-1" width="9" height="6" viewBox="0 0 9 6" fill="none">
<path d="M6.6675 0.265001L3.8125 3.12L2.3325 1.64125C2.01125 1.32 1.49 1.32 1.16875 1.64125C0.847498 1.9625 0.847498 2.48375 1.16875 2.805L3.245 4.88125C3.5575 5.19375 4.065 5.19375 4.3775 4.88125L7.83 1.42875C8.15125 1.1075 8.15125 0.586251 7.83 0.265001C7.50875 -0.0562494 6.98875 -0.0562494 6.6675 0.265001Z" fill="#FFFCEE"/>
</symbol>

</svg>
